<?xml version="1.0" standalone="no"?>
<!DOCTYPE svg PUBLIC "-//W3C//DTD SVG 20010904//EN"
 "http://www.w3.org/TR/2001/REC-SVG-20010904/DTD/svg10.dtd">
<svg version="1.0" xmlns="http://www.w3.org/2000/svg"
 width="212.000000pt" height="212.000000pt" viewBox="0 0 212.000000 212.000000"
 preserveAspectRatio="xMidYMid meet">

<g transform="translate(0.000000,212.000000) scale(0.100000,-0.100000)"
fill="#000000" stroke="none">
<path d="M160 1820 l0 -140 140 0 140 0 0 140 0 140 -140 0 -140 0 0 -140z
m240 0 l0 -100 -100 0 -100 0 0 100 0 100 100 0 100 0 0 -100z"/>
<path d="M240 1820 l0 -60 60 0 60 0 0 60 0 60 -60 0 -60 0 0 -60z"/>
<path d="M480 1920 c0 -33 3 -40 20 -40 13 0 20 -7 20 -20 0 -13 -7 -20 -20
-20 -13 0 -20 -7 -20 -20 0 -13 7 -20 20 -20 13 0 20 -7 20 -20 0 -13 7 -20
20 -20 17 0 20 -7 20 -40 0 -33 -3 -40 -20 -40 -13 0 -20 7 -20 20 0 13 -7 20
-20 20 -17 0 -20 -7 -20 -40 l0 -40 -60 0 -60 0 0 -40 c0 -33 -3 -40 -20 -40
-17 0 -20 7 -20 40 l0 40 -40 0 c-33 0 -40 -3 -40 -20 0 -13 7 -20 20 -20 13
0 20 -7 20 -20 0 -17 -7 -20 -40 -20 l-40 0 0 40 c0 33 -3 40 -20 40 -19 0
-20 -7 -20 -140 0 -133 1 -140 20 -140 13 0 20 -7 20 -20 0 -13 -7 -20 -20
-20 -17 0 -20 -7 -20 -40 0 -33 3 -40 20 -40 13 0 20 -7 20 -20 0 -13 7 -20
20 -20 18 0 20 7 20 60 l0 60 40 0 40 0 0 60 c0 53 -2 60 -20 60 -13 0 -20 -7
-20 -20 0 -13 -7 -20 -20 -20 -13 0 -20 -7 -20 -20 0 -13 -7 -20 -20 -20 -17
0 -20 7 -20 40 0 33 3 40 20 40 13 0 20 7 20 20 0 13 -7 20 -20 20 -13 0 -20
7 -20 20 0 17 7 20 40 20 33 0 40 -3 40 -20 0 -17 7 -20 40 -20 33 0 40 3 40
20 0 17 7 20 40 20 33 0 40 -3 40 -20 0 -13 -7 -20 -20 -20 -13 0 -20 -7 -20
-20 0 -13 7 -20 20 -20 13 0 20 7 20 20 0 13 7 20 20 20 17 0 20 -7 20 -40 l0
-40 -40 0 c-33 0 -40 -3 -40 -20 0 -13 -7 -20 -20 -20 -13 0 -20 -7 -20 -20 0
-13 7 -20 20 -20 13 0 20 -7 20 -20 0 -13 7 -20 20 -20 13 0 20 -7 20 -20 0
-13 -7 -20 -20 -20 -13 0 -20 -7 -20 -20 0 -13 -7 -20 -20 -20 -13 0 -20 7
-20 20 0 13 -7 20 -20 20 -13 0 -20 -7 -20 -20 0 -13 -7 -20 -20 -20 -13 0
-20 -7 -20 -20 0 -13 -7 -20 -20 -20 -13 0 -20 -7 -20 -20 0 -13 -7 -20 -20
-20 -13 0 -20 7 -20 20 0 13 -7 20 -20 20 -13 0 -20 -7 -20 -20 0 -13 7 -20
20 -20 13 0 20 -7 20 -20 0 -13 7 -20 20 -20 13 0 20 -7 20 -20 0 -17 7 -20
40 -20 33 0 40 -3 40 -20 0 -18 -7 -20 -60 -20 -53 0 -60 -2 -60 -20 0 -13 -7
-20 -20 -20 -17 0 -20 -7 -20 -40 l0 -40 40 0 40 0 0 -80 c0 -73 -2 -80 -20
-80 -13 0 -20 -7 -20 -20 0 -13 -7 -20 -20 -20 -17 0 -20 -7 -20 -40 0 -33 3
-40 20 -40 17 0 20 7 20 40 l0 40 40 0 c33 0 40 3 40 20 0 13 7 20 20 20 17 0
20 -7 20 -40 l0 -40 -40 0 c-33 0 -40 -3 -40 -20 0 -17 7 -20 40 -20 33 0 40
-3 40 -20 0 -18 -7 -20 -60 -20 -53 0 -60 -2 -60 -20 0 -13 -7 -20 -20 -20
-13 0 -20 -7 -20 -20 0 -13 7 -20 20 -20 13 0 20 7 20 20 0 17 7 20 40 20 33
0 40 -3 40 -20 0 -17 7 -20 40 -20 l40 0 0 60 c0 53 -2 60 -20 60 -13 0 -20 7
-20 20 0 18 7 20 60 20 53 0 60 -2 60 -20 0 -13 -7 -20 -20 -20 -13 0 -20 -7
-20 -20 0 -17 7 -20 40 -20 33 0 40 -3 40 -20 0 -17 -7 -20 -40 -20 -33 0 -40
-3 -40 -20 0 -17 7 -20 40 -20 l40 0 0 -60 c0 -53 2 -60 20 -60 13 0 20 -7 20
-20 0 -13 -7 -20 -20 -20 -17 0 -20 -7 -20 -40 0 -33 3 -40 20 -40 13 0 20 -7
20 -20 0 -13 -7 -20 -20 -20 -13 0 -20 -7 -20 -20 0 -18 7 -20 60 -20 l60 0 0
40 c0 33 3 40 20 40 13 0 20 7 20 20 0 18 7 20 80 20 73 0 80 -2 80 -20 0 -13
7 -20 20 -20 13 0 20 7 20 20 0 13 7 20 20 20 13 0 20 -7 20 -20 0 -17 7 -20
40 -20 33 0 40 3 40 20 0 13 -7 20 -20 20 -17 0 -20 7 -20 40 0 33 3 40 20 40
13 0 20 -7 20 -20 0 -13 7 -20 20 -20 13 0 20 -7 20 -20 0 -13 7 -20 20 -20
13 0 20 -7 20 -20 0 -13 7 -20 20 -20 17 0 20 7 20 40 l0 40 60 0 c53 0 60 2
60 20 0 18 7 20 60 20 53 0 60 -2 60 -20 0 -17 -7 -20 -40 -20 -33 0 -40 -3
-40 -20 0 -13 -7 -20 -20 -20 -13 0 -20 -7 -20 -20 0 -17 -7 -20 -40 -20 -33
0 -40 -3 -40 -20 0 -17 -7 -20 -40 -20 -33 0 -40 -3 -40 -20 0 -17 7 -20 40
-20 33 0 40 3 40 20 0 13 7 20 20 20 13 0 20 -7 20 -20 0 -13 7 -20 20 -20 13
0 20 7 20 20 0 13 7 20 20 20 13 0 20 -7 20 -20 0 -17 7 -20 40 -20 l40 0 0
40 c0 33 3 40 20 40 18 0 20 7 20 60 0 53 2 60 20 60 17 0 20 -7 20 -40 l0
-40 60 0 60 0 0 -40 c0 -33 -3 -40 -20 -40 -13 0 -20 -7 -20 -20 0 -17 7 -20
40 -20 l40 0 0 60 c0 53 2 60 20 60 13 0 20 -7 20 -20 0 -13 7 -20 20 -20 13
0 20 -7 20 -20 0 -13 -7 -20 -20 -20 -13 0 -20 -7 -20 -20 0 -18 7 -20 60 -20
53 0 60 2 60 20 0 13 7 20 20 20 13 0 20 -7 20 -20 0 -13 7 -20 20 -20 13 0
20 7 20 20 0 13 -7 20 -20 20 -13 0 -20 7 -20 20 0 13 -7 20 -20 20 -13 0 -20
7 -20 20 0 13 -7 20 -20 20 -13 0 -20 7 -20 20 0 18 7 20 60 20 53 0 60 2 60
20 0 13 7 20 20 20 13 0 20 -7 20 -20 0 -13 7 -20 20 -20 13 0 20 7 20 20 0
17 7 20 40 20 33 0 40 3 40 20 0 13 -7 20 -20 20 -17 0 -20 7 -20 40 0 33 -3
40 -20 40 -17 0 -20 -7 -20 -40 l0 -40 -40 0 -40 0 0 40 c0 33 3 40 20 40 13
0 20 7 20 20 0 18 -7 20 -60 20 l-60 0 0 40 c0 33 3 40 20 40 13 0 20 -7 20
-20 0 -13 7 -20 20 -20 13 0 20 7 20 20 0 13 7 20 20 20 13 0 20 -7 20 -20 0
-13 7 -20 20 -20 13 0 20 -7 20 -20 0 -13 7 -20 20 -20 13 0 20 7 20 20 0 13
7 20 20 20 18 0 20 7 20 60 0 53 -2 60 -20 60 -13 0 -20 -7 -20 -20 0 -13 -7
-20 -20 -20 -13 0 -20 7 -20 20 0 13 -7 20 -20 20 -13 0 -20 -7 -20 -20 0 -13
-7 -20 -20 -20 -13 0 -20 -7 -20 -20 0 -13 -7 -20 -20 -20 -17 0 -20 7 -20 40
0 33 -3 40 -20 40 -17 0 -20 -7 -20 -40 0 -33 -3 -40 -20 -40 -17 0 -20 7 -20
40 0 33 -3 40 -20 40 -13 0 -20 7 -20 20 0 13 -7 20 -20 20 -17 0 -20 -7 -20
-40 0 -33 3 -40 20 -40 17 0 20 -7 20 -40 0 -33 3 -40 20 -40 13 0 20 -7 20
-20 0 -17 -7 -20 -40 -20 l-40 0 0 40 0 40 -60 0 c-53 0 -60 2 -60 20 0 17 7
20 40 20 33 0 40 3 40 20 0 13 -7 20 -20 20 -13 0 -20 7 -20 20 0 13 7 20 20
20 17 0 20 7 20 40 l0 40 40 0 c33 0 40 -3 40 -20 0 -17 7 -20 40 -20 33 0 40
-3 40 -20 0 -13 7 -20 20 -20 13 0 20 7 20 20 0 13 7 20 20 20 13 0 20 -7 20
-20 0 -13 7 -20 20 -20 13 0 20 7 20 20 0 13 -7 20 -20 20 -17 0 -20 7 -20 40
0 33 3 40 20 40 13 0 20 -7 20 -20 0 -13 7 -20 20 -20 17 0 20 7 20 40 0 33
-3 40 -20 40 -13 0 -20 7 -20 20 0 13 7 20 20 20 13 0 20 7 20 20 0 17 7 20
40 20 l40 0 0 80 0 80 -40 0 c-33 0 -40 3 -40 20 0 13 -7 20 -20 20 -13 0 -20
7 -20 20 0 13 7 20 20 20 13 0 20 7 20 20 0 17 7 20 40 20 l40 0 0 40 c0 33
-3 40 -20 40 -18 0 -20 7 -20 60 0 53 2 60 20 60 13 0 20 7 20 20 0 13 -7 20
-20 20 -13 0 -20 7 -20 20 0 13 7 20 20 20 18 0 20 7 20 60 l0 60 -40 0 c-33
0 -40 -3 -40 -20 0 -13 -7 -20 -20 -20 -13 0 -20 7 -20 20 0 13 -7 20 -20 20
-13 0 -20 -7 -20 -20 0 -13 -7 -20 -20 -20 -13 0 -20 -7 -20 -20 0 -13 7 -20
20 -20 18 0 20 -7 20 -60 0 -53 2 -60 20 -60 18 0 20 7 20 60 0 53 2 60 20 60
17 0 20 -7 20 -40 0 -33 3 -40 20 -40 13 0 20 -7 20 -20 0 -13 -7 -20 -20 -20
-13 0 -20 -7 -20 -20 0 -13 -7 -20 -20 -20 -13 0 -20 -7 -20 -20 0 -18 -7 -20
-60 -20 -53 0 -60 2 -60 20 0 13 7 20 20 20 18 0 20 7 20 60 l0 60 -40 0 c-33
0 -40 3 -40 20 0 13 -7 20 -20 20 -17 0 -20 7 -20 40 0 33 -3 40 -20 40 -13 0
-20 -7 -20 -20 0 -13 -7 -20 -20 -20 -13 0 -20 7 -20 20 0 13 -7 20 -20 20
-13 0 -20 7 -20 20 0 13 7 20 20 20 13 0 20 7 20 20 0 13 -7 20 -20 20 -13 0
-20 7 -20 20 0 18 7 20 60 20 l60 0 0 40 c0 33 -3 40 -20 40 -17 0 -20 7 -20
40 0 33 3 40 20 40 13 0 20 7 20 20 0 13 -7 20 -20 20 -13 0 -20 -7 -20 -20 0
-13 -7 -20 -20 -20 -18 0 -20 -7 -20 -60 l0 -60 -60 0 c-53 0 -60 2 -60 20 0
13 7 20 20 20 17 0 20 7 20 40 0 33 -3 40 -20 40 -13 0 -20 -7 -20 -20 0 -13
-7 -20 -20 -20 -17 0 -20 7 -20 40 l0 40 -60 0 c-53 0 -60 -2 -60 -20 0 -13
-7 -20 -20 -20 -13 0 -20 -7 -20 -20 0 -17 7 -20 40 -20 33 0 40 -3 40 -20 0
-13 7 -20 20 -20 13 0 20 -7 20 -20 0 -13 7 -20 20 -20 13 0 20 -7 20 -20 0
-13 -7 -20 -20 -20 -17 0 -20 -7 -20 -40 0 -33 -3 -40 -20 -40 -17 0 -20 7
-20 40 l0 40 -40 0 c-33 0 -40 3 -40 20 0 13 7 20 20 20 13 0 20 7 20 20 0 13
-7 20 -20 20 -13 0 -20 -7 -20 -20 0 -13 -7 -20 -20 -20 -18 0 -20 -7 -20 -80
0 -73 -2 -80 -20 -80 -19 0 -20 7 -20 100 0 93 -1 100 -20 100 -13 0 -20 7
-20 20 0 17 -7 20 -40 20 -33 0 -40 3 -40 20 0 13 7 20 20 20 13 0 20 7 20 20
0 13 -7 20 -20 20 -13 0 -20 -7 -20 -20 0 -17 -7 -20 -40 -20 -33 0 -40 3 -40
20 0 13 -7 20 -20 20 -13 0 -20 -7 -20 -20 0 -13 7 -20 20 -20 13 0 20 -7 20
-20 0 -13 7 -20 20 -20 13 0 20 -7 20 -20 0 -13 -7 -20 -20 -20 -13 0 -20 -7
-20 -20 0 -13 -7 -20 -20 -20 -13 0 -20 7 -20 20 0 13 -7 20 -20 20 -17 0 -20
-7 -20 -40 0 -33 -3 -40 -20 -40 -13 0 -20 7 -20 20 0 18 -7 20 -60 20 -53 0
-60 2 -60 20 0 17 7 20 40 20 33 0 40 3 40 20 0 13 7 20 20 20 17 0 20 7 20
40 0 33 -3 40 -20 40 -17 0 -20 -7 -20 -40 0 -33 -3 -40 -20 -40 -17 0 -20 7
-20 40 0 33 -3 40 -20 40 -17 0 -20 -7 -20 -40 0 -33 -3 -40 -20 -40 -13 0
-20 7 -20 20 0 13 -7 20 -20 20 -13 0 -20 7 -20 20 0 18 -7 20 -80 20 l-80 0
0 -40z m160 -60 c0 -53 -2 -60 -20 -60 -13 0 -20 -7 -20 -20 0 -13 7 -20 20
-20 17 0 20 -7 20 -40 0 -33 3 -40 20 -40 17 0 20 7 20 40 l0 40 40 0 c33 0
40 -3 40 -20 0 -13 7 -20 20 -20 13 0 20 -7 20 -20 0 -13 7 -20 20 -20 13 0
20 7 20 20 0 13 7 20 20 20 17 0 20 -7 20 -40 0 -33 3 -40 20 -40 13 0 20 -7
20 -20 0 -13 7 -20 20 -20 13 0 20 -7 20 -20 0 -13 7 -20 20 -20 13 0 20 7 20
20 0 13 7 20 20 20 18 0 20 -7 20 -80 0 -73 2 -80 20 -80 13 0 20 -7 20 -20 0
-17 7 -20 40 -20 33 0 40 -3 40 -20 0 -17 -7 -20 -40 -20 -33 0 -40 -3 -40
-20 0 -17 7 -20 40 -20 33 0 40 -3 40 -20 0 -17 -7 -20 -40 -20 -33 0 -40 3
-40 20 0 13 -7 20 -20 20 -13 0 -20 -7 -20 -20 0 -17 -7 -20 -40 -20 -33 0
-40 -3 -40 -20 0 -13 -7 -20 -20 -20 -17 0 -20 -7 -20 -40 0 -33 3 -40 20 -40
13 0 20 -7 20 -20 0 -13 -7 -20 -20 -20 -13 0 -20 -7 -20 -20 0 -13 7 -20 20
-20 13 0 20 -7 20 -20 0 -13 -7 -20 -20 -20 -13 0 -20 7 -20 20 0 13 -7 20
-20 20 -18 0 -20 -7 -20 -60 0 -53 2 -60 20 -60 13 0 20 7 20 20 0 13 7 20 20
20 13 0 20 -7 20 -20 0 -13 7 -20 20 -20 17 0 20 -7 20 -40 0 -33 -3 -40 -20
-40 -13 0 -20 -7 -20 -20 0 -13 -7 -20 -20 -20 -13 0 -20 -7 -20 -20 0 -13 7
-20 20 -20 13 0 20 -7 20 -20 0 -13 7 -20 20 -20 13 0 20 7 20 20 0 13 7 20
20 20 17 0 20 7 20 40 0 33 3 40 20 40 13 0 20 7 20 20 0 13 7 20 20 20 13 0
20 7 20 20 0 13 7 20 20 20 13 0 20 7 20 20 0 13 7 20 20 20 13 0 20 7 20 20
0 13 -7 20 -20 20 -13 0 -20 7 -20 20 0 13 7 20 20 20 13 0 20 7 20 20 0 13
-7 20 -20 20 -13 0 -20 7 -20 20 0 13 -7 20 -20 20 -13 0 -20 7 -20 20 0 13
-7 20 -20 20 -13 0 -20 -7 -20 -20 0 -13 -7 -20 -20 -20 -13 0 -20 7 -20 20 0
13 -7 20 -20 20 -13 0 -20 7 -20 20 0 18 7 20 60 20 53 0 60 -2 60 -20 0 -13
7 -20 20 -20 13 0 20 -7 20 -20 0 -13 7 -20 20 -20 13 0 20 7 20 20 0 17 7 20
40 20 33 0 40 -3 40 -20 0 -13 -7 -20 -20 -20 -13 0 -20 -7 -20 -20 0 -17 7
-20 40 -20 33 0 40 -3 40 -20 0 -13 7 -20 20 -20 13 0 20 -7 20 -20 0 -17 7
-20 40 -20 33 0 40 3 40 20 0 13 -7 20 -20 20 -13 0 -20 7 -20 20 0 13 -7 20
-20 20 -13 0 -20 7 -20 20 0 13 -7 20 -20 20 -17 0 -20 7 -20 40 l0 40 -60 0
-60 0 0 40 0 40 60 0 c53 0 60 2 60 20 0 17 -7 20 -40 20 l-40 0 0 60 c0 53
-2 60 -20 60 -13 0 -20 -7 -20 -20 0 -13 -7 -20 -20 -20 -13 0 -20 7 -20 20 0
17 -7 20 -40 20 l-40 0 0 60 0 60 40 0 40 0 0 -40 c0 -33 3 -40 20 -40 18 0
20 7 20 60 0 53 2 60 20 60 13 0 20 -7 20 -20 0 -17 7 -20 40 -20 33 0 40 3
40 20 0 17 7 20 40 20 l40 0 0 40 c0 33 3 40 20 40 13 0 20 -7 20 -20 0 -13 7
-20 20 -20 13 0 20 7 20 20 0 13 7 20 20 20 13 0 20 -7 20 -20 0 -13 -7 -20
-20 -20 -17 0 -20 -7 -20 -40 l0 -40 40 0 c33 0 40 -3 40 -20 0 -13 7 -20 20
-20 13 0 20 -7 20 -20 0 -17 7 -20 40 -20 33 0 40 -3 40 -20 0 -13 7 -20 20
-20 13 0 20 -7 20 -20 0 -13 -7 -20 -20 -20 -13 0 -20 7 -20 20 0 13 -7 20
-20 20 -18 0 -20 -7 -20 -60 l0 -60 -80 0 -80 0 0 40 c0 33 -3 40 -20 40 -13
0 -20 7 -20 20 0 13 -7 20 -20 20 -17 0 -20 -7 -20 -40 0 -33 3 -40 20 -40 13
0 20 -7 20 -20 0 -13 -7 -20 -20 -20 -13 0 -20 7 -20 20 0 13 -7 20 -20 20
-17 0 -20 -7 -20 -40 0 -33 3 -40 20 -40 13 0 20 -7 20 -20 0 -13 7 -20 20
-20 13 0 20 -7 20 -20 0 -18 7 -20 60 -20 53 0 60 -2 60 -20 0 -13 7 -20 20
-20 17 0 20 7 20 40 0 33 3 40 20 40 13 0 20 7 20 20 0 13 7 20 20 20 13 0 20
-7 20 -20 0 -17 7 -20 40 -20 33 0 40 3 40 20 0 13 7 20 20 20 13 0 20 -7 20
-20 0 -13 -7 -20 -20 -20 -17 0 -20 -7 -20 -40 0 -33 -3 -40 -20 -40 -13 0
-20 -7 -20 -20 0 -17 -7 -20 -40 -20 -33 0 -40 3 -40 20 0 13 -7 20 -20 20
-17 0 -20 -7 -20 -40 0 -33 -3 -40 -20 -40 -13 0 -20 -7 -20 -20 0 -13 -7 -20
-20 -20 -13 0 -20 -7 -20 -20 0 -17 -7 -20 -40 -20 -33 0 -40 -3 -40 -20 0
-13 7 -20 20 -20 13 0 20 -7 20 -20 0 -13 -7 -20 -20 -20 -17 0 -20 -7 -20
-40 0 -33 -3 -40 -20 -40 -13 0 -20 7 -20 20 0 17 -7 20 -40 20 -33 0 -40 -3
-40 -20 0 -13 -7 -20 -20 -20 -13 0 -20 -7 -20 -20 0 -17 7 -20 40 -20 33 0
40 -3 40 -20 0 -13 7 -20 20 -20 13 0 20 7 20 20 0 13 7 20 20 20 13 0 20 -7
20 -20 0 -13 7 -20 20 -20 18 0 20 7 20 60 0 53 2 60 20 60 13 0 20 7 20 20 0
13 7 20 20 20 18 0 20 -7 20 -60 0 -53 -2 -60 -20 -60 -13 0 -20 -7 -20 -20 0
-13 -7 -20 -20 -20 -18 0 -20 -7 -20 -80 0 -73 -2 -80 -20 -80 -17 0 -20 -7
-20 -40 0 -33 -3 -40 -20 -40 -17 0 -20 -7 -20 -40 0 -33 3 -40 20 -40 13 0
20 7 20 20 0 13 7 20 20 20 13 0 20 7 20 20 0 13 7 20 20 20 13 0 20 -7 20
-20 0 -17 7 -20 40 -20 l40 0 0 -40 c0 -33 -3 -40 -20 -40 -17 0 -20 -7 -20
-40 0 -33 3 -40 20 -40 13 0 20 -7 20 -20 0 -17 -7 -20 -40 -20 -33 0 -40 3
-40 20 0 13 -7 20 -20 20 -13 0 -20 7 -20 20 0 13 -7 20 -20 20 -13 0 -20 -7
-20 -20 0 -13 -7 -20 -20 -20 -13 0 -20 7 -20 20 0 13 7 20 20 20 13 0 20 7
20 20 0 19 -7 20 -100 20 -93 0 -100 1 -100 20 0 13 -7 20 -20 20 -18 0 -20 7
-20 60 0 53 -2 60 -20 60 -13 0 -20 7 -20 20 0 17 -7 20 -40 20 -33 0 -40 3
-40 20 0 13 -7 20 -20 20 -17 0 -20 -7 -20 -40 0 -33 -3 -40 -20 -40 -13 0
-20 -7 -20 -20 0 -17 7 -20 40 -20 33 0 40 3 40 20 0 13 7 20 20 20 13 0 20
-7 20 -20 0 -13 7 -20 20 -20 13 0 20 -7 20 -20 0 -18 -7 -20 -80 -20 -73 0
-80 2 -80 20 0 13 -7 20 -20 20 -17 0 -20 -7 -20 -40 0 -33 -3 -40 -20 -40
-17 0 -20 7 -20 40 0 33 -3 40 -20 40 -17 0 -20 -7 -20 -40 l0 -40 -40 0 c-33
0 -40 -3 -40 -20 0 -17 7 -20 40 -20 33 0 40 -3 40 -20 0 -13 7 -20 20 -20 13
0 20 7 20 20 0 13 7 20 20 20 13 0 20 -7 20 -20 0 -13 -7 -20 -20 -20 -13 0
-20 -7 -20 -20 0 -13 -7 -20 -20 -20 -13 0 -20 7 -20 20 0 17 -7 20 -40 20
-33 0 -40 3 -40 20 0 13 -7 20 -20 20 -13 0 -20 -7 -20 -20 0 -13 -7 -20 -20
-20 -13 0 -20 -7 -20 -20 0 -18 7 -20 60 -20 l60 0 0 -40 c0 -33 -3 -40 -20
-40 -13 0 -20 7 -20 20 0 18 -7 20 -60 20 l-60 0 0 40 c0 33 -3 40 -20 40 -17
0 -20 -7 -20 -40 0 -33 -3 -40 -20 -40 -17 0 -20 -7 -20 -40 0 -33 -3 -40 -20
-40 -17 0 -20 7 -20 40 0 33 3 40 20 40 13 0 20 7 20 20 0 17 -7 20 -40 20
l-40 0 0 60 c0 53 2 60 20 60 13 0 20 -7 20 -20 0 -13 7 -20 20 -20 13 0 20
-7 20 -20 0 -13 7 -20 20 -20 17 0 20 7 20 40 0 33 -3 40 -20 40 -13 0 -20 7
-20 20 0 17 -7 20 -40 20 l-40 0 0 40 c0 33 -3 40 -20 40 -13 0 -20 7 -20 20
0 13 -7 20 -20 20 -13 0 -20 7 -20 20 0 13 -7 20 -20 20 -13 0 -20 7 -20 20 0
17 -7 20 -40 20 -33 0 -40 3 -40 20 0 13 -7 20 -20 20 -13 0 -20 7 -20 20 0
13 7 20 20 20 13 0 20 -7 20 -20 0 -17 7 -20 40 -20 33 0 40 3 40 20 0 13 -7
20 -20 20 -13 0 -20 7 -20 20 0 17 -7 20 -40 20 -33 0 -40 3 -40 20 0 13 7 20
20 20 13 0 20 7 20 20 0 17 -7 20 -40 20 -33 0 -40 3 -40 20 0 17 7 20 40 20
33 0 40 -3 40 -20 0 -13 7 -20 20 -20 13 0 20 7 20 20 0 18 7 20 80 20 73 0
80 2 80 20 0 13 7 20 20 20 18 0 20 7 20 60 0 53 -2 60 -20 60 -13 0 -20 7
-20 20 0 13 -7 20 -20 20 -13 0 -20 7 -20 20 0 13 7 20 20 20 17 0 20 7 20 40
0 33 -3 40 -20 40 -13 0 -20 7 -20 20 0 17 -7 20 -40 20 -33 0 -40 3 -40 20 0
17 7 20 40 20 33 0 40 3 40 20 0 13 7 20 20 20 17 0 20 7 20 40 0 33 -3 40
-20 40 -13 0 -20 7 -20 20 0 13 -7 20 -20 20 -13 0 -20 7 -20 20 0 13 -7 20
-20 20 -13 0 -20 7 -20 20 0 17 7 20 40 20 33 0 40 3 40 20 0 13 7 20 20 20
13 0 20 -7 20 -20 0 -18 7 -20 60 -20 l60 0 0 -40 0 -40 40 0 c33 0 40 3 40
20 0 13 -7 20 -20 20 -17 0 -20 7 -20 40 0 33 -3 40 -20 40 -13 0 -20 7 -20
20 0 13 -7 20 -20 20 -17 0 -20 7 -20 40 0 33 -3 40 -20 40 -13 0 -20 7 -20
20 0 13 -7 20 -20 20 -13 0 -20 7 -20 20 0 13 7 20 20 20 13 0 20 7 20 20 0
13 -7 20 -20 20 -13 0 -20 7 -20 20 0 18 7 20 60 20 l60 0 0 -60z m760 0 c0
-13 -7 -20 -20 -20 -13 0 -20 7 -20 20 0 13 7 20 20 20 13 0 20 -7 20 -20z
m-360 -40 c0 -13 -7 -20 -20 -20 -13 0 -20 7 -20 20 0 13 7 20 20 20 13 0 20
-7 20 -20z m80 -120 l0 -60 -60 0 -60 0 0 60 0 60 60 0 60 0 0 -60z m-160 0
c0 -13 -7 -20 -20 -20 -13 0 -20 7 -20 20 0 13 7 20 20 20 13 0 20 -7 20 -20z
m320 0 c0 -13 -7 -20 -20 -20 -13 0 -20 7 -20 20 0 13 7 20 20 20 13 0 20 -7
20 -20z m640 -400 c0 -13 -7 -20 -20 -20 -13 0 -20 -7 -20 -20 0 -13 -7 -20
-20 -20 -13 0 -20 7 -20 20 0 13 7 20 20 20 13 0 20 7 20 20 0 13 7 20 20 20
13 0 20 -7 20 -20z m-1480 -120 c0 -13 -7 -20 -20 -20 -13 0 -20 7 -20 20 0
13 7 20 20 20 13 0 20 -7 20 -20z m40 -120 l0 -60 -60 0 -60 0 0 60 0 60 60 0
60 0 0 -60z m640 0 l0 -60 -60 0 -60 0 0 60 0 60 60 0 60 0 0 -60z m640 0 l0
-60 -60 0 -60 0 0 60 0 60 60 0 60 0 0 -60z m120 0 c0 -13 7 -20 20 -20 13 0
20 -7 20 -20 0 -13 -7 -20 -20 -20 -13 0 -20 -7 -20 -20 0 -13 -7 -20 -20 -20
-18 0 -20 7 -20 60 0 53 2 60 20 60 13 0 20 -7 20 -20z m-280 -40 c0 -13 -7
-20 -20 -20 -13 0 -20 7 -20 20 0 13 7 20 20 20 13 0 20 -7 20 -20z m40 -120
l0 -60 40 0 c33 0 40 3 40 20 0 13 -7 20 -20 20 -13 0 -20 7 -20 20 0 13 7 20
20 20 13 0 20 7 20 20 0 17 7 20 40 20 33 0 40 -3 40 -20 0 -17 -7 -20 -40
-20 -33 0 -40 -3 -40 -20 0 -17 7 -20 40 -20 33 0 40 -3 40 -20 0 -17 -7 -20
-40 -20 -33 0 -40 -3 -40 -20 0 -17 -7 -20 -40 -20 -33 0 -40 3 -40 20 0 13
-7 20 -20 20 -18 0 -20 7 -20 60 0 53 2 60 20 60 18 0 20 -7 20 -60z m-520
-480 l0 -60 -60 0 -60 0 0 60 0 60 60 0 60 0 0 -60z m640 0 l0 -60 -60 0 -60
0 0 60 0 60 60 0 60 0 0 -60z m-560 0 c0 -13 -7 -20 -20 -20 -13 0 -20 7 -20
20 0 13 7 20 20 20 13 0 20 -7 20 -20z m120 -160 c0 -13 -7 -20 -20 -20 -13 0
-20 -7 -20 -20 0 -13 -7 -20 -20 -20 -17 0 -20 7 -20 40 l0 40 40 0 c33 0 40
-3 40 -20z m360 0 c0 -13 -7 -20 -20 -20 -13 0 -20 7 -20 20 0 13 7 20 20 20
13 0 20 -7 20 -20z"/>
<path d="M560 1820 c0 -13 7 -20 20 -20 13 0 20 7 20 20 0 13 -7 20 -20 20
-13 0 -20 -7 -20 -20z"/>
<path d="M720 1700 c0 -13 -7 -20 -20 -20 -13 0 -20 -7 -20 -20 0 -13 7 -20
20 -20 13 0 20 -7 20 -20 0 -17 7 -20 40 -20 33 0 40 -3 40 -20 0 -13 7 -20
20 -20 13 0 20 7 20 20 0 13 7 20 20 20 13 0 20 7 20 20 0 13 -7 20 -20 20
-13 0 -20 -7 -20 -20 0 -13 -7 -20 -20 -20 -13 0 -20 7 -20 20 0 17 -7 20 -40
20 -33 0 -40 3 -40 20 0 13 7 20 20 20 13 0 20 7 20 20 0 13 -7 20 -20 20 -13
0 -20 -7 -20 -20z"/>
<path d="M1320 1580 c0 -13 7 -20 20 -20 13 0 20 -7 20 -20 0 -13 -7 -20 -20
-20 -13 0 -20 -7 -20 -20 0 -17 7 -20 40 -20 33 0 40 3 40 20 0 13 7 20 20 20
13 0 20 -7 20 -20 0 -13 7 -20 20 -20 13 0 20 -7 20 -20 0 -13 7 -20 20 -20
13 0 20 7 20 20 0 13 -7 20 -20 20 -13 0 -20 7 -20 20 0 17 7 20 40 20 33 0
40 3 40 20 0 17 -7 20 -40 20 -33 0 -40 -3 -40 -20 0 -13 -7 -20 -20 -20 -17
0 -20 7 -20 40 l0 40 -60 0 c-53 0 -60 -2 -60 -20z"/>
<path d="M520 1540 c0 -13 7 -20 20 -20 13 0 20 -7 20 -20 0 -13 7 -20 20 -20
13 0 20 -7 20 -20 0 -13 -7 -20 -20 -20 -13 0 -20 -7 -20 -20 0 -13 7 -20 20
-20 13 0 20 -7 20 -20 0 -17 7 -20 40 -20 l40 0 0 40 c0 33 3 40 20 40 18 0
20 -7 20 -60 l0 -60 -80 0 c-73 0 -80 -2 -80 -20 0 -17 7 -20 40 -20 l40 0 0
-40 c0 -33 -3 -40 -20 -40 -13 0 -20 7 -20 20 0 13 -7 20 -20 20 -13 0 -20 -7
-20 -20 0 -13 -7 -20 -20 -20 -13 0 -20 -7 -20 -20 0 -13 7 -20 20 -20 13 0
20 -7 20 -20 0 -13 7 -20 20 -20 17 0 20 -7 20 -40 0 -33 3 -40 20 -40 13 0
20 -7 20 -20 0 -13 7 -20 20 -20 13 0 20 -7 20 -20 0 -17 -7 -20 -40 -20 -33
0 -40 -3 -40 -20 0 -18 7 -20 60 -20 53 0 60 2 60 20 0 17 7 20 40 20 l40 0 0
40 c0 33 3 40 20 40 13 0 20 7 20 20 0 13 -7 20 -20 20 -13 0 -20 7 -20 20 0
13 7 20 20 20 13 0 20 7 20 20 0 13 7 20 20 20 13 0 20 7 20 20 0 13 -7 20
-20 20 -13 0 -20 -7 -20 -20 0 -13 -7 -20 -20 -20 -13 0 -20 7 -20 20 0 13 -7
20 -20 20 -13 0 -20 -7 -20 -20 0 -13 -7 -20 -20 -20 -13 0 -20 7 -20 20 0 13
-7 20 -20 20 -17 0 -20 7 -20 40 0 33 3 40 20 40 13 0 20 7 20 20 0 13 7 20
20 20 17 0 20 -7 20 -40 0 -33 3 -40 20 -40 17 0 20 7 20 40 l0 40 40 0 c33 0
40 3 40 20 0 13 7 20 20 20 17 0 20 7 20 40 0 33 3 40 20 40 13 0 20 7 20 20
0 13 -7 20 -20 20 -17 0 -20 7 -20 40 0 33 -3 40 -20 40 -17 0 -20 -7 -20 -40
l0 -40 -40 0 c-33 0 -40 3 -40 20 0 13 -7 20 -20 20 -17 0 -20 -7 -20 -40 0
-33 -3 -40 -20 -40 -13 0 -20 7 -20 20 0 13 -7 20 -20 20 -13 0 -20 -7 -20
-20 0 -13 -7 -20 -20 -20 -17 0 -20 7 -20 40 l0 40 -40 0 c-33 0 -40 3 -40 20
0 13 -7 20 -20 20 -13 0 -20 -7 -20 -20z m320 -160 c0 -13 -7 -20 -20 -20 -13
0 -20 -7 -20 -20 0 -13 -7 -20 -20 -20 -17 0 -20 7 -20 40 l0 40 40 0 c33 0
40 -3 40 -20z m-240 -200 c0 -13 -7 -20 -20 -20 -13 0 -20 7 -20 20 0 13 7 20
20 20 13 0 20 -7 20 -20z m120 -40 c0 -13 7 -20 20 -20 13 0 20 7 20 20 0 13
7 20 20 20 13 0 20 -7 20 -20 0 -13 -7 -20 -20 -20 -13 0 -20 -7 -20 -20 0
-13 -7 -20 -20 -20 -13 0 -20 7 -20 20 0 17 -7 20 -40 20 -33 0 -40 3 -40 20
0 17 7 20 40 20 33 0 40 -3 40 -20z m-40 -80 c0 -17 7 -20 40 -20 33 0 40 -3
40 -20 0 -17 -7 -20 -40 -20 -33 0 -40 3 -40 20 0 13 -7 20 -20 20 -13 0 -20
7 -20 20 0 13 7 20 20 20 13 0 20 -7 20 -20z"/>
<path d="M1240 1500 c0 -13 7 -20 20 -20 13 0 20 7 20 20 0 13 -7 20 -20 20
-13 0 -20 -7 -20 -20z"/>
<path d="M1000 1420 c0 -13 -7 -20 -20 -20 -13 0 -20 -7 -20 -20 0 -18 7 -20
60 -20 53 0 60 2 60 20 0 13 -7 20 -20 20 -13 0 -20 7 -20 20 0 13 -7 20 -20
20 -13 0 -20 -7 -20 -20z"/>
<path d="M840 1260 c0 -17 7 -20 40 -20 33 0 40 3 40 20 0 17 -7 20 -40 20
-33 0 -40 -3 -40 -20z"/>
<path d="M1320 1260 c0 -13 7 -20 20 -20 13 0 20 7 20 20 0 13 -7 20 -20 20
-13 0 -20 -7 -20 -20z"/>
<path d="M1680 1220 c0 -13 7 -20 20 -20 13 0 20 7 20 20 0 13 -7 20 -20 20
-13 0 -20 -7 -20 -20z"/>
<path d="M1480 1160 c0 -33 -3 -40 -20 -40 -13 0 -20 -7 -20 -20 0 -13 7 -20
20 -20 13 0 20 7 20 20 0 13 7 20 20 20 17 0 20 7 20 40 0 33 -3 40 -20 40
-17 0 -20 -7 -20 -40z"/>
<path d="M1200 1060 c0 -13 7 -20 20 -20 13 0 20 7 20 20 0 13 -7 20 -20 20
-13 0 -20 -7 -20 -20z"/>
<path d="M1280 1060 c0 -13 7 -20 20 -20 13 0 20 -7 20 -20 0 -13 7 -20 20
-20 13 0 20 -7 20 -20 0 -13 7 -20 20 -20 13 0 20 7 20 20 0 13 -7 20 -20 20
-13 0 -20 7 -20 20 0 13 -7 20 -20 20 -13 0 -20 7 -20 20 0 13 -7 20 -20 20
-13 0 -20 -7 -20 -20z"/>
<path d="M520 940 c0 -13 7 -20 20 -20 13 0 20 7 20 20 0 13 -7 20 -20 20 -13
0 -20 -7 -20 -20z"/>
<path d="M840 940 c0 -13 -7 -20 -20 -20 -18 0 -20 -7 -20 -60 0 -53 -2 -60
-20 -60 -17 0 -20 7 -20 40 0 33 -3 40 -20 40 -13 0 -20 -7 -20 -20 0 -13 -7
-20 -20 -20 -13 0 -20 7 -20 20 0 13 -7 20 -20 20 -13 0 -20 -7 -20 -20 0 -13
-7 -20 -20 -20 -13 0 -20 -7 -20 -20 0 -13 7 -20 20 -20 13 0 20 7 20 20 0 13
7 20 20 20 13 0 20 -7 20 -20 0 -13 7 -20 20 -20 13 0 20 -7 20 -20 0 -18 -7
-20 -80 -20 l-80 0 0 -40 c0 -33 -3 -40 -20 -40 -18 0 -20 7 -20 60 0 53 -2
60 -20 60 -17 0 -20 -7 -20 -40 0 -33 -3 -40 -20 -40 -13 0 -20 7 -20 20 0 13
-7 20 -20 20 -13 0 -20 -7 -20 -20 0 -13 7 -20 20 -20 13 0 20 -7 20 -20 0
-13 7 -20 20 -20 13 0 20 -7 20 -20 0 -17 7 -20 40 -20 33 0 40 -3 40 -20 0
-17 7 -20 40 -20 33 0 40 -3 40 -20 0 -13 -7 -20 -20 -20 -13 0 -20 -7 -20
-20 0 -13 7 -20 20 -20 13 0 20 -7 20 -20 0 -13 7 -20 20 -20 17 0 20 -7 20
-40 0 -33 3 -40 20 -40 17 0 20 7 20 40 0 33 3 40 20 40 13 0 20 7 20 20 0 13
7 20 20 20 13 0 20 7 20 20 0 13 7 20 20 20 13 0 20 7 20 20 0 13 -7 20 -20
20 -13 0 -20 7 -20 20 0 13 7 20 20 20 13 0 20 7 20 20 0 13 7 20 20 20 13 0
20 7 20 20 0 13 -7 20 -20 20 -13 0 -20 7 -20 20 0 17 7 20 40 20 33 0 40 3
40 20 0 17 -7 20 -40 20 l-40 0 0 40 0 40 60 0 60 0 0 40 c0 33 -3 40 -20 40
-13 0 -20 -7 -20 -20 0 -13 -7 -20 -20 -20 -13 0 -20 7 -20 20 0 13 -7 20 -20
20 -13 0 -20 -7 -20 -20z m-40 -200 c0 -13 7 -20 20 -20 13 0 20 -7 20 -20 0
-13 -7 -20 -20 -20 -13 0 -20 7 -20 20 0 13 -7 20 -20 20 -13 0 -20 -7 -20
-20 0 -13 -7 -20 -20 -20 -17 0 -20 7 -20 40 l0 40 40 0 c33 0 40 -3 40 -20z
m-120 -40 c0 -13 -7 -20 -20 -20 -13 0 -20 -7 -20 -20 0 -17 7 -20 40 -20 33
0 40 -3 40 -20 0 -13 7 -20 20 -20 17 0 20 -7 20 -40 0 -33 -3 -40 -20 -40
-13 0 -20 -7 -20 -20 0 -13 -7 -20 -20 -20 -13 0 -20 7 -20 20 0 13 7 20 20
20 17 0 20 7 20 40 l0 40 -40 0 c-33 0 -40 3 -40 20 0 17 -7 20 -40 20 -33 0
-40 3 -40 20 0 13 7 20 20 20 13 0 20 7 20 20 0 17 7 20 40 20 33 0 40 -3 40
-20z"/>
<path d="M1200 940 c0 -17 -7 -20 -40 -20 -33 0 -40 -3 -40 -20 0 -13 -7 -20
-20 -20 -18 0 -20 -7 -20 -60 l0 -60 -40 0 c-33 0 -40 -3 -40 -20 0 -18 7 -20
60 -20 l60 0 0 60 c0 53 2 60 20 60 13 0 20 -7 20 -20 0 -13 7 -20 20 -20 13
0 20 7 20 20 0 13 7 20 20 20 17 0 20 -7 20 -40 l0 -40 -40 0 c-33 0 -40 -3
-40 -20 0 -13 7 -20 20 -20 13 0 20 -7 20 -20 0 -17 7 -20 40 -20 33 0 40 -3
40 -20 0 -13 -7 -20 -20 -20 -13 0 -20 -7 -20 -20 0 -13 7 -20 20 -20 13 0 20
7 20 20 0 13 7 20 20 20 17 0 20 -7 20 -40 l0 -40 40 0 40 0 0 60 c0 53 2 60
20 60 18 0 20 7 20 60 0 53 -2 60 -20 60 -13 0 -20 -7 -20 -20 0 -13 -7 -20
-20 -20 -13 0 -20 7 -20 20 0 17 -7 20 -40 20 -33 0 -40 3 -40 20 0 13 -7 20
-20 20 -13 0 -20 7 -20 20 0 13 7 20 20 20 13 0 20 7 20 20 0 13 7 20 20 20
13 0 20 7 20 20 0 13 -7 20 -20 20 -13 0 -20 -7 -20 -20 0 -13 -7 -20 -20 -20
-13 0 -20 7 -20 20 0 13 -7 20 -20 20 -13 0 -20 -7 -20 -20z m120 -200 c0 -17
-7 -20 -40 -20 -33 0 -40 3 -40 20 0 17 7 20 40 20 33 0 40 -3 40 -20z m80
-40 c0 -13 -7 -20 -20 -20 -13 0 -20 7 -20 20 0 13 7 20 20 20 13 0 20 -7 20
-20z"/>
<path d="M400 900 c0 -13 -7 -20 -20 -20 -13 0 -20 -7 -20 -20 0 -13 7 -20 20
-20 13 0 20 -7 20 -20 0 -13 7 -20 20 -20 13 0 20 7 20 20 0 13 -7 20 -20 20
-13 0 -20 7 -20 20 0 13 7 20 20 20 13 0 20 7 20 20 0 13 -7 20 -20 20 -13 0
-20 -7 -20 -20z"/>
<path d="M480 860 c0 -13 7 -20 20 -20 13 0 20 7 20 20 0 13 -7 20 -20 20 -13
0 -20 -7 -20 -20z"/>
<path d="M920 660 c0 -13 -7 -20 -20 -20 -13 0 -20 -7 -20 -20 0 -17 7 -20 40
-20 l40 0 0 40 c0 33 -3 40 -20 40 -13 0 -20 -7 -20 -20z"/>
<path d="M1320 500 c0 -13 7 -20 20 -20 13 0 20 7 20 20 0 13 -7 20 -20 20
-13 0 -20 -7 -20 -20z"/>
<path d="M1480 440 c0 -33 3 -40 20 -40 17 0 20 7 20 40 0 33 -3 40 -20 40
-17 0 -20 -7 -20 -40z"/>
<path d="M1040 1700 c0 -13 7 -20 20 -20 13 0 20 7 20 20 0 13 -7 20 -20 20
-13 0 -20 -7 -20 -20z"/>
<path d="M400 1060 c0 -13 7 -20 20 -20 13 0 20 7 20 20 0 13 -7 20 -20 20
-13 0 -20 -7 -20 -20z"/>
<path d="M1040 1060 c0 -13 7 -20 20 -20 13 0 20 7 20 20 0 13 -7 20 -20 20
-13 0 -20 -7 -20 -20z"/>
<path d="M1680 1060 c0 -13 7 -20 20 -20 13 0 20 7 20 20 0 13 -7 20 -20 20
-13 0 -20 -7 -20 -20z"/>
<path d="M1040 420 c0 -13 7 -20 20 -20 13 0 20 7 20 20 0 13 -7 20 -20 20
-13 0 -20 -7 -20 -20z"/>
<path d="M1680 420 c0 -13 7 -20 20 -20 13 0 20 7 20 20 0 13 -7 20 -20 20
-13 0 -20 -7 -20 -20z"/>
<path d="M1680 1820 l0 -140 140 0 140 0 0 140 0 140 -140 0 -140 0 0 -140z
m240 0 l0 -100 -100 0 -100 0 0 100 0 100 100 0 100 0 0 -100z"/>
<path d="M1760 1820 l0 -60 60 0 60 0 0 60 0 60 -60 0 -60 0 0 -60z"/>
<path d="M1600 1700 c0 -13 7 -20 20 -20 13 0 20 7 20 20 0 13 -7 20 -20 20
-13 0 -20 -7 -20 -20z"/>
<path d="M1680 1620 c0 -13 7 -20 20 -20 13 0 20 7 20 20 0 13 -7 20 -20 20
-13 0 -20 -7 -20 -20z"/>
<path d="M1920 1180 c0 -13 7 -20 20 -20 13 0 20 7 20 20 0 13 -7 20 -20 20
-13 0 -20 -7 -20 -20z"/>
<path d="M1920 860 c0 -13 7 -20 20 -20 13 0 20 7 20 20 0 13 -7 20 -20 20
-13 0 -20 -7 -20 -20z"/>
<path d="M1920 780 c0 -13 7 -20 20 -20 13 0 20 7 20 20 0 13 -7 20 -20 20
-13 0 -20 -7 -20 -20z"/>
<path d="M160 300 l0 -140 140 0 140 0 0 140 0 140 -140 0 -140 0 0 -140z
m240 0 l0 -100 -100 0 -100 0 0 100 0 100 100 0 100 0 0 -100z"/>
<path d="M240 300 l0 -60 60 0 60 0 0 60 0 60 -60 0 -60 0 0 -60z"/>
<path d="M1920 300 c0 -17 -7 -20 -40 -20 -33 0 -40 -3 -40 -20 0 -17 7 -20
40 -20 33 0 40 -3 40 -20 0 -13 7 -20 20 -20 13 0 20 7 20 20 0 13 -7 20 -20
20 -13 0 -20 7 -20 20 0 13 7 20 20 20 13 0 20 7 20 20 0 13 -7 20 -20 20 -13
0 -20 -7 -20 -20z"/>
<path d="M640 180 c0 -17 7 -20 40 -20 33 0 40 3 40 20 0 17 -7 20 -40 20 -33
0 -40 -3 -40 -20z"/>
<path d="M760 180 c0 -13 7 -20 20 -20 13 0 20 7 20 20 0 13 -7 20 -20 20 -13
0 -20 -7 -20 -20z"/>
<path d="M840 180 c0 -17 7 -20 40 -20 33 0 40 3 40 20 0 17 -7 20 -40 20 -33
0 -40 -3 -40 -20z"/>
<path d="M1840 180 c0 -13 7 -20 20 -20 13 0 20 7 20 20 0 13 -7 20 -20 20
-13 0 -20 -7 -20 -20z"/>
</g>
</svg>
